<svg width="24" height="24" viewBox="0 0 24 24" fill="none" xmlns="http://www.w3.org/2000/svg">
<path d="M11.0254 21.9498C8.45872 21.6998 6.31706 20.6248 4.60039 18.7248C2.88372 16.8248 2.02539 14.5831 2.02539 11.9998C2.02539 9.41647 2.88372 7.1748 4.60039 5.2748C6.31706 3.3748 8.45872 2.2998 11.0254 2.0498V5.0498C9.29206 5.28314 7.85872 6.05814 6.72539 7.3748C5.59206 8.69147 5.02539 10.2331 5.02539 11.9998C5.02539 13.7665 5.59206 15.3081 6.72539 16.6248C7.85872 17.9415 9.29206 18.7165 11.0254 18.9498V21.9498ZM13.0254 21.9498V18.9498C14.5921 18.7498 15.9171 18.0998 17.0004 16.9998C18.0837 15.8998 18.7421 14.5665 18.9754 12.9998H21.9754C21.7421 15.3831 20.7879 17.4123 19.1129 19.0873C17.4379 20.7623 15.4087 21.7165 13.0254 21.9498ZM18.9754 10.9998C18.7421 9.43314 18.0837 8.0998 17.0004 6.9998C15.9171 5.8998 14.5921 5.2498 13.0254 5.0498V2.0498C15.4087 2.28314 17.4379 3.2373 19.1129 4.9123C20.7879 6.5873 21.7421 8.61647 21.9754 10.9998H18.9754Z" fill="#4158DE"/>
</svg>
